<svg width="24" height="24" viewBox="0 0 24 24" fill="none" xmlns="http://www.w3.org/2000/svg">
<rect width="24" height="24" rx="6.85714" fill="#F2EDF2"/>
<path d="M13.2647 19.2617C12.2224 19.2617 11.2624 19.104 10.3847 18.7886C9.50695 18.4594 8.77323 17.952 8.18352 17.2663C7.60752 16.5669 7.24409 15.6549 7.09323 14.5303H7.99838C8.30009 15.1063 8.68409 15.5863 9.15038 15.9703C9.61666 16.3406 10.1515 16.6217 10.7549 16.8137C11.3721 16.992 12.0372 17.0811 12.7504 17.0811C13.4361 17.0811 13.971 16.9577 14.3549 16.7109C14.7527 16.464 14.9515 16.08 14.9515 15.5589C14.9515 15.2023 14.8418 14.9211 14.6224 14.7154C14.4167 14.496 14.1355 14.3314 13.7789 14.2217C13.4361 14.112 13.0658 14.0297 12.6681 13.9749L11.3515 13.7897C10.2269 13.6251 9.21209 13.3577 8.30695 12.9874C7.40181 12.6034 6.68181 12.0891 6.14695 11.4446C5.62581 10.7863 5.36523 9.96342 5.36523 8.976C5.36523 7.98857 5.59838 7.18628 6.06466 6.56914C6.54466 5.93828 7.18238 5.47885 7.97781 5.19085C8.78695 4.88914 9.68523 4.73828 10.6727 4.73828C11.6464 4.73828 12.5309 4.896 13.3264 5.21142C14.1355 5.51314 14.8075 5.99999 15.3424 6.672C15.891 7.344 16.2475 8.21485 16.4121 9.28457H15.5481C15.1778 8.47542 14.6018 7.87885 13.8201 7.49485C13.0384 7.09714 12.1675 6.89828 11.2075 6.89828C10.5492 6.89828 10.0212 7.01485 9.62352 7.248C9.22581 7.48114 9.02695 7.85828 9.02695 8.37942C9.02695 8.72228 9.12295 9.00342 9.31495 9.22285C9.52066 9.42857 9.78123 9.59314 10.0967 9.71657C10.4258 9.82628 10.7755 9.90857 11.1458 9.96342L12.4624 10.1486C13.6418 10.3131 14.6978 10.5669 15.6304 10.9097C16.563 11.2389 17.2967 11.712 17.8315 12.3291C18.3664 12.9463 18.6338 13.7623 18.6338 14.7771C18.6338 15.7783 18.4075 16.6149 17.955 17.2869C17.5024 17.9451 16.8715 18.4389 16.0624 18.768C15.2669 19.0971 14.3344 19.2617 13.2647 19.2617ZM5.65323 19.0149V14.5303H7.09323L7.93666 16.3406V19.0149H5.65323ZM16.4121 9.28457L15.6098 7.49485V4.98514H17.8932V9.28457H16.4121Z" fill="#804881"/>
</svg>
